PathFileType	4	(X/Y/Z)	D:\luciana\vassoio.trc
DataRate	CameraRate	NumFrames	NumMarkers	Units	OrigDataRate	OrigDataStartFrame	OrigNumFrames
250.00	250.00	11	20	mm	250.00	93	2051
Frame#	Time	pelvisR			Trunk1			Trunk2			Trunk3			C7			shoulder			upperArm1			upperArm2			upperArm3			elbow			forearm1			forearm2			forearm3			wrist1			wrist2			wrist3			Object1			Hand			Object2			Object3			
		X1	Y1	Z1	X2	Y2	Z2	X3	Y3	Z3	X4	Y4	Z4	X5	Y5	Z5	X6	Y6	Z6	X7	Y7	Z7	X8	Y8	Z8	X9	Y9	Z9	X10	Y10	Z10	X11	Y11	Z11	X12	Y12	Z12	X13	Y13	Z13	X14	Y14	Z14	X15	Y15	Z15	X16	Y16	Z16	X17	Y17	Z17	X18	Y18	Z18	X19	Y19	Z19	X20	Y20	Z20	

92	0.368000	1707.147837	666.524768	733.112991	1482.760429	867.846429	637.594998	1544.885874	814.780235	633.889079	1455.190897	776.632130	633.498549	1548.194885	1131.409764	816.190839	1721.732140	1054.595232	761.666954	1797.296524	878.845394	853.069186	1846.723318	889.180720	797.868848	1795.870304	889.247894	729.633093	1829.057455	754.301250	771.978617	1873.317003	699.269593	717.725158	1818.719864	658.909678	762.896478	1830.094218	750.022471	682.614744	1847.133636	671.349049	575.383484	1830.589771	603.084564	612.800539	1781.833410	708.131313	572.964609	1558.539152	578.713298	482.123554	1826.359749	602.380633	505.546153	1639.281988	551.953137	395.401061	1495.857954	552.368402	395.131081	
93	0.372000	1707.143784	666.522026	733.109295	1482.764482	867.839992	637.604892	1544.883728	814.790308	633.896291	1455.186367	776.640058	633.507073	1548.186064	1131.412268	816.177189	1721.721053	1054.596782	761.645257	1797.301054	878.843963	853.072166	1846.720695	889.185488	797.859311	1795.865417	889.253139	729.624748	1829.062939	754.306972	771.981239	1873.323798	699.269414	717.734218	1818.720937	658.919156	762.904108	1830.098152	750.020623	682.611525	1847.131252	671.351850	575.386286	1830.599189	603.096187	612.825036	1781.833172	708.136737	572.969735	1558.546901	578.722954	482.142776	1826.377511	602.386475	505.561531	1639.237404	551.947415	395.420432	1495.838881	552.367866	395.132124	
94	0.376000	1707.139492	666.515470	733.098805	1482.785463	867.830157	637.593031	1544.885635	814.794004	633.896530	1455.190182	776.636362	633.522093	1548.176050	1131.405354	816.175103	1721.721411	1054.590702	761.648536	1797.303081	878.851533	853.074253	1846.718431	889.191508	797.855318	1795.865655	889.258623	729.630113	1829.065442	754.305661	771.979809	1873.327494	699.272573	717.746615	1818.714976	658.917665	762.909174	1830.094576	750.020146	682.612896	1847.129703	671.352327	575.385928	1830.590010	603.106380	612.822413	1781.827927	708.138943	572.967291	1558.538437	578.719556	482.149184	1826.386929	602.404475	505.563557	1639.166832	551.919818	395.428598	1495.853662	552.366316	395.152777	
95	0.380000	1707.146287	666.513145	733.106732	1482.791901	867.828071	637.601137	1544.884920	814.797521	633.898735	1455.194950	776.630640	633.531690	1548.177123	1131.410122	816.180646	1721.726418	1054.586172	761.664927	1797.298908	878.857851	853.064120	1846.714973	889.200568	797.860563	1795.857072	889.260888	729.632378	1829.059362	754.310250	771.982193	1873.331785	699.275792	717.744708	1818.721414	658.919096	762.907445	1830.091119	750.026941	682.625949	1847.124338	671.356320	575.385809	1830.589533	603.125155	612.816691	1781.827450	708.140790	572.969496	1558.522463	578.717113	482.150972	1826.367497	602.406859	505.553782	1639.144778	551.918864	395.434856	1495.870829	552.375555	395.148993	
96	0.384000	1707.137108	666.518331	733.118057	1482.766509	867.843509	637.600780	1544.893980	814.797521	633.901060	1455.199003	776.629508	633.544862	1548.194408	1131.411314	816.187501	1721.727610	1054.596424	761.675835	1797.309279	878.873765	853.070617	1846.716881	889.213502	797.858775	1795.847535	889.258623	729.635656	1829.060793	754.314542	771.972954	1873.326659	699.270844	717.726111	1818.733692	658.922911	762.903154	1830.091119	750.037253	682.623386	1847.115874	671.359122	575.388491	1830.614567	603.136778	612.824321	1781.829119	708.146572	572.974086	1558.535337	578.717828	482.157946	1826.346040	602.386832	505.550385	1639.187694	551.939547	395.426095	1495.884418	552.386642	395.142376	
97	0.388000	1707.134128	666.527689	733.124077	1482.758522	867.830813	637.607455	1544.896841	814.800441	633.906364	1455.189586	776.638567	633.552372	1548.203945	1131.413221	816.186965	1721.729279	1054.610848	761.675715	1797.313809	878.874183	853.071570	1846.721888	889.218211	797.855675	1795.860410	889.260709	729.621530	1829.059839	754.332066	771.970630	1873.321533	699.281335	717.716157	1818.736434	658.931673	762.901306	1830.090165	750.042737	682.618022	1847.117662	671.364546	575.396895	1830.615520	603.118420	612.840831	1781.831384	708.150268	572.978497	1558.557034	578.726530	482.148647	1826.348066	602.381229	505.562544	1639.167786	551.927149	395.427376	1495.856524	552.382350	395.146251	
98	0.392000	1707.142591	666.527390	733.123422	1482.784748	867.842495	637.607932	1544.905305	814.803660	633.916438	1455.201387	776.642084	633.552611	1548.200965	1131.415606	816.181123	1721.727490	1054.612160	761.664510	1797.319412	878.883481	853.064418	1846.725106	889.218748	797.851384	1795.863152	889.261603	729.631364	1829.066277	754.349709	771.988809	1873.341084	699.295759	717.727780	1818.734169	658.938766	762.904644	1830.092192	750.048995	682.616711	1847.118616	671.365023	575.405657	1830.587149	603.117585	612.827301	1781.832576	708.155692	572.975993	1558.555841	578.732371	482.135534	1826.342225	602.383256	505.566418	1639.141083	551.931798	395.419776	1495.866895	552.390337	395.151317	
99	0.396000	1707.136035	666.528463	733.130038	1482.792139	867.840946	637.608051	1544.914007	814.799666	633.926868	1455.222726	776.642501	633.560479	1548.208356	1131.418824	816.176653	1721.718669	1054.611802	761.657000	1797.322989	878.885388	853.068531	1846.729636	889.225662	797.853589	1795.863986	889.263988	729.630530	1829.074383	754.348338	771.990538	1873.341680	699.304581	717.735827	1818.749189	658.937216	762.905419	1830.095410	750.053227	682.616532	1847.118735	671.366215	575.411916	1830.598235	603.116870	612.827659	1781.828403	708.160341	572.972178	1558.566093	578.734577	482.146561	1826.369286	602.407277	505.579352	1639.163733	551.960230	395.402968	1495.877266	552.381098	395.149946	
100	0.400000	1707.140446	666.536808	733.138442	1482.809305	867.843688	637.622714	1544.914961	814.787567	633.927226	1455.239534	776.637971	633.563340	1548.215508	1131.423950	816.179276	1721.723795	1054.618716	761.649609	1797.325373	878.894508	853.066862	1846.728086	889.224708	797.850966	1795.866489	889.268637	729.622841	1829.077482	754.351377	771.982670	1873.339891	699.316382	717.733026	1818.758845	658.943713	762.901366	1830.095053	750.058532	682.615936	1847.119689	671.367586	575.407207	1830.618739	603.121102	612.853646	1781.822562	708.161950	572.983027	1558.565378	578.742385	482.154369	1826.392293	602.415502	505.584240	1639.178276	551.959038	395.418048	1495.864153	552.390575	395.149767	
101	0.404000	1707.145333	666.536391	733.146727	1482.780933	867.824614	637.637854	1544.914961	814.783454	633.940995	1455.235720	776.637137	633.571327	1548.208475	1131.417751	816.192567	1721.723437	1054.612398	761.639476	1797.328591	878.915787	853.079677	1846.731424	889.230609	797.848463	1795.862198	889.275670	729.637265	1829.087615	754.363656	771.989882	1873.343468	699.326038	717.735291	1818.752766	658.958554	762.897730	1830.097318	750.060976	682.623744	1847.120047	671.380043	575.403690	1830.611110	603.119254	612.845778	1781.825542	708.157182	572.989166	1558.544517	578.733444	482.158959	1826.367378	602.407575	505.564630	1639.167309	551.942885	395.433843	1495.850682	552.384913	395.146966	
102	0.408000	1707.142830	666.537941	733.153224	1482.779264	867.796719	637.636364	1544.911623	814.790905	633.946300	1455.235004	776.619971	633.583188	1548.207283	1131.411791	816.213012	1721.732020	1054.612875	761.667848	1797.325373	878.907681	853.079259	1846.743822	889.245212	797.862768	1795.866013	889.283478	729.645312	1829.090476	754.360855	771.985412	1873.353839	699.327469	717.737794	1818.765759	658.958554	762.910604	1830.101013	750.061035	682.616711	1847.116232	671.378374	575.397730	1830.608845	603.117585	612.825394	1781.826615	708.154798	572.989225	1558.540940	578.722060	482.153594	1826.366305	602.406442	505.572438	1639.189005	551.936686	395.429969	1495.851874	552.372336	395.142913	
